# xmcd
#
# Track frame offsets:
#	150
#	17653
#	33944
#	45865
#	60812
#	75929
#	88759
#	105463
#	121082
#	131853
#	145228
#	161312
#	176897
#	190451
#	203020
#	218386
#	234121
#	246637
#	261185
#	264684
#	271479
#	277931
#	282004
#	287434
#	292088
#	296694
#	299804
#	305753
#	311807
#	317575
#	321415
#	326624
#	333737
#	351815
#
# Disc length: 4787 seconds
#
# Revision: 1
# Processed by: cddbd v1.4PL0 Copyright (c) Steve Scherf et al.
# Submitted via: audiograbber 1.80
#
DISCID=0912b122
DTITLE=DOGGTIME - The Doggtime Experience The Art of Blending 2003
DYEAR=1900
DGENRE=
TTITLE0=Mary J Blige - Love at 1st sight b/w Busta Rhymes - Light Your Ass on F
TTITLE0=ire
TTITLE1=Beyonce - Crazy in love b/w Joe Budden Pump it up
TTITLE2=Ashanti - Rock WITH YOU B/W JAY Z EXUSE ME MISS AGAIN
TTITLE3=PHARREL - FRONTIN B\W LOON HOW YOU WANT THAT
TTITLE4=112 FT SUPA CAT B\W NA NA NA DOG MIX
TTITLE5=R KELLY - STEP IN THE NAME OF LOVE - RMX B\W 50 CENT FOR ALL MY NIGGAS
TTITLE6=ATL - CALLIN ALL GIRLS B\W LITTLE KIM - MAGIC STICK
TTITLE7=KELIS FT NAS - POPULAR THUG B\W - FIFTY CENT THEY NOT READY
TTITLE8=ASHANTI - FEEL SO GOOD B\W FIFTY CENT - WHAT UP GANGSTA
TTITLE9=JHENE - NO LOVE B\W KEITH MURRAY - CANDY BAR
TTITLE10=BEYONCE - ME MYSELF AND I DOG MIX
TTITLE11=MONICA FT BUSTA RHYMES - SO GONE RMX B\W JADA KISS WE GONE MAKE IT
TTITLE12=MYA - MY LOVE IS LIKE WHOA B\W DAVID BANNER - LIKE A PIMP
TTITLE13=TAMIA - MISSIN YOU B\W JOE BUDDEN - FIRE
TTITLE14=GENUINE FT SOUL
TTITLE15=GHOST FACE FT BEYONCE - SUMMERTIME
TTITLE16=FABOLOUS FT TAMIA - IN TO YOU
TTITLE17=NAS - GET DOWN DOG MIX 
TTITLE18=GENUINE
TTITLE19=INTRO
TTITLE20=ENVOGUE
TTITLE21=CASE
TTITLE22=TONY BRAXTON
TTITLE23=THE BRAXTONS
TTITLE24=BRANDY
TTITLE25=GLEN LOUIS
TTITLE26=TOTAL
TTITLE27=FAITH EVANS
TTITLE28=NEXT
TTITLE29=VANESSA WILLIAMS
TTITLE30=MISSY ELLIOT
TTITLE31=SWEET SABLE
TTITLE32=ASHANTI - RAIN ON ME B\W DOUD E FRESH ONLY AT NIGHT
TTITLE33=LITTLE MO
EXTD=R&B Mix Tape 2003\nPhone - 646-373-7946\nE-Mail - djdoggtime@aol.com
EXTT0=
EXTT1=
EXTT2=
EXTT3=
EXTT4=
EXTT5=
EXTT6=
EXTT7=
EXTT8=
EXTT9=
EXTT10=
EXTT11=
EXTT12=
EXTT13=
EXTT14=
EXTT15=
EXTT16=
EXTT17=
EXTT18=
EXTT19=
EXTT20=
EXTT21=
EXTT22=
EXTT23=
EXTT24=
EXTT25=
EXTT26=
EXTT27=
EXTT28=
EXTT29=
EXTT30=
EXTT31=
EXTT32=
EXTT33=
PLAYORDER=
